<svg width="759" height="118" viewBox="0 0 759 118" fill="none" xmlns="http://www.w3.org/2000/svg">
<g clip-path="url(#clip0_18_82)">
<path d="M84.7197 4.46086H4.5187C2.01094 4.46086 0 6.35911 0 8.68447V13.2877C0 15.6368 2.01094 17.5351 4.5187 17.5351H33.8075C35.6291 17.5351 37.1196 18.935 37.1196 20.6434V106.326C37.1196 108.675 39.1305 110.573 41.6383 110.573H47.6475C50.1316 110.573 52.1662 108.675 52.1662 106.326V20.6434C52.1662 18.935 53.6566 17.5351 55.4783 17.5351H84.7671C87.2512 17.5351 89.2858 15.6368 89.2858 13.2877V8.68447C89.2858 6.33538 87.2748 4.43713 84.7671 4.43713L84.7197 4.46086Z" fill="#2D373F"/>
<path d="M147.083 29.9686C138.116 29.9686 130.593 32.6262 124.607 37.8938C122.975 39.3175 120.325 38.2497 120.325 36.1617V3.51176C120.325 1.56606 118.645 0 116.587 0H109.537C107.479 0 105.799 1.56606 105.799 3.51176V107.038C105.799 108.983 107.479 110.549 109.537 110.549H116.587C118.645 110.549 120.325 108.983 120.325 107.038V65.5134C120.325 52.0121 129.907 42.592 143.605 42.592C156.995 42.592 164.992 50.8257 164.992 64.6117V107.014C164.992 108.96 166.671 110.526 168.73 110.526H175.78C177.838 110.526 179.518 108.96 179.518 107.014V61.7881C179.518 42.4496 166.766 29.9449 147.059 29.9449L147.083 29.9686Z" fill="#2D373F"/>
<path d="M218.459 2.23041H204.572C203.909 2.23041 203.389 2.7287 203.389 3.34563V15.969C203.389 16.5859 203.933 17.0842 204.572 17.0842H218.459C219.121 17.0842 219.642 16.5859 219.642 15.969V3.34563C219.642 2.7287 219.098 2.23041 218.459 2.23041Z" fill="#2D373F"/>
<path d="M217.513 31.606H205.352C204.69 31.606 204.169 32.1042 204.169 32.7212V109.434C204.169 110.051 204.713 110.549 205.352 110.549H217.513C218.175 110.549 218.695 110.051 218.695 109.434V32.7212C218.695 32.1042 218.151 31.606 217.513 31.606Z" fill="#2D373F"/>
<path d="M285.861 29.9686C276.493 29.9686 268.709 32.8634 262.582 38.6057C261.304 39.8158 259.104 39.0328 259.104 37.3243V34.6193C259.104 32.9584 257.661 31.6059 255.886 31.6059H247.772C245.997 31.6059 244.554 32.9584 244.554 34.6193V107.536C244.554 109.197 245.997 110.549 247.772 110.549H255.886C257.661 110.549 259.104 109.197 259.104 107.536V65.5134C259.104 52.0121 268.685 42.592 282.383 42.592C295.774 42.592 303.77 50.8256 303.77 64.6117V107.512C303.77 109.173 305.213 110.526 306.988 110.526H315.103C316.877 110.526 318.32 109.173 318.32 107.512V61.788C318.32 42.4496 305.568 29.9449 285.861 29.9449V29.9686Z" fill="#2D373F"/>
<path d="M383.475 67.9574C382.457 66.6998 382.576 64.9202 383.759 63.7812L415.247 33.5041C415.579 33.1719 415.673 32.6974 415.484 32.294C415.295 31.8906 414.869 31.6059 414.372 31.6059H400.674C399.42 31.6059 398.214 32.0804 397.362 32.9346L362.23 67.3642C360.1 69.4522 356.362 68.0286 356.362 65.1574V4.31852C356.362 1.92198 354.304 0 351.773 0H346.426C343.895 0 341.836 1.94571 341.836 4.31852V106.231C341.836 108.627 343.895 110.549 346.426 110.549H351.773C354.304 110.549 356.362 108.604 356.362 106.231V91.1872C356.362 90.333 356.717 89.5262 357.356 88.933L368.901 77.9944C370.344 76.6181 372.757 76.7605 374.011 78.3028L398.994 108.888C399.87 109.956 401.218 110.573 402.638 110.573H415.484C415.934 110.573 416.359 110.336 416.549 109.956C416.762 109.577 416.714 109.126 416.43 108.77L383.451 67.9574H383.475Z" fill="#2D373F"/>
<path d="M463.013 29.9686C440.017 29.9686 422.652 47.6698 422.652 71.1607C422.652 94.6515 440.68 112.353 464.575 112.353C478.699 112.353 489.345 107.797 499.092 97.5938C499.305 97.3802 499.423 97.0718 499.399 96.787C499.399 96.4786 499.234 96.2176 498.997 96.004L493.296 91.1872C491.852 89.9771 489.487 90.0008 488.091 91.2584C481.277 97.3328 473.849 100.18 464.882 100.18C451.492 100.18 441.2 92.2312 438.101 80.0113C437.699 78.4452 438.977 76.9029 440.704 76.9029H498.382C500.44 76.9029 502.167 75.3605 502.215 73.4386C502.215 72.8216 502.215 72.2759 502.215 71.7776C502.215 46.7919 486.435 29.9924 462.966 29.9924L463.013 29.9686ZM440.751 65.4422C439.024 65.4422 437.77 63.9236 438.148 62.3338C441.224 50.0901 450.829 41.8564 462.706 41.8564C477.232 41.8564 484.518 51.8222 486.884 62.405C487.239 63.971 485.962 65.4185 484.282 65.4185H440.751V65.4422Z" fill="#2D373F"/>
<path d="M566.186 30.2533C555.209 30.372 545.485 35.26 538.625 43.897C537.702 45.0597 535.738 44.4902 535.738 43.0428V34.2159C535.738 32.7685 534.484 31.6058 532.947 31.6058H523.957C522.419 31.6058 521.165 32.7685 521.165 34.2159V107.939C521.165 109.387 522.419 110.549 523.957 110.549H532.947C534.484 110.549 535.738 109.387 535.738 107.939V78.8723C535.738 58.1814 547.97 44.8224 566.92 44.8224H567.866C568.528 44.8224 569.049 44.3241 569.049 43.7072V32.8397C569.049 31.3686 567.748 30.2296 566.186 30.2296V30.2533Z" fill="#2D373F"/>
<path d="M616.507 64.588L616.199 64.4931C606.003 61.5745 596.35 58.8221 596.35 52.4392V52.1307C596.35 46.1512 602.218 42.1175 610.947 42.1175C618.423 42.1175 626.775 44.6801 634.464 49.3545C634.724 49.5206 635.055 49.5681 635.386 49.4969C635.694 49.4257 635.978 49.2359 636.143 48.9749L640.142 42.7344C641.348 40.8599 640.662 38.4159 638.627 37.3006C630.347 32.816 620.34 30.2059 611.255 30.2059C594.197 30.2059 582.274 39.6972 582.274 53.2934V53.5781C582.274 68.8828 598.385 73.1776 610.143 76.3334C621.191 79.2283 629.637 81.9807 629.637 88.7432V89.0517C629.637 95.6481 623.321 100.085 613.928 100.085C604.796 100.085 595.262 96.7871 586.367 90.5229C586.106 90.333 585.775 90.2618 585.468 90.3093C585.136 90.3568 584.876 90.5228 584.687 90.7601L580.192 96.7159C578.867 98.4718 579.317 100.916 581.186 102.173C590.294 108.248 602.336 111.973 613.29 111.973C631.388 111.973 643.525 102.268 643.525 87.8416V87.5568C643.525 72.1573 627.248 67.554 616.46 64.5168L616.507 64.588Z" fill="#2D373F"/>
<path d="M710.736 13.0539C730.656 12.176 750.435 22.0469 755.616 41.0531C756.278 43.5208 755.237 44.992 752.517 45.2767C750.056 45.5377 747.548 45.5614 745.088 45.2767C743.952 45.1343 743.124 44.7072 742.627 43.9479C741.941 43.0225 741.374 41.931 740.995 40.7209C735.909 25.2739 713.22 20.5045 698.955 26.3654C687.48 31.0873 680.785 40.2463 677.922 51.5172C677.094 54.7679 676.574 58.0662 676.361 61.4118C676.266 63.0728 676.219 64.7575 676.29 66.4185C676.621 76.5741 678.963 87.1094 685.635 95.3431C699.38 112.285 730.94 110.624 740.38 90.5025C741.989 87.0619 742.06 82.5061 744.118 79.3978C744.615 78.6385 745.419 78.2351 746.507 78.1402C749.323 77.9029 756.586 76.7877 756.988 80.7265C757.083 81.7231 756.988 82.6722 756.68 83.5976C754.031 93.2075 750.245 102.556 741.799 108.963C724.34 122.227 693.679 120.969 677.639 106.116C676.527 105.095 675.486 104.004 674.539 102.841C670.636 98.1667 667.56 92.638 665.265 86.2552C664.863 85.14 664.532 83.9536 664.295 82.7434C660.321 62.7643 662.143 39.7955 679.082 25.2739C687.551 18.0131 698.647 13.7657 710.074 13.1251C710.31 13.1251 710.523 13.1013 710.76 13.1013L710.736 13.0539Z" fill="#2D373F"/>
<path d="M746.034 54.9815C746.933 54.9815 747.927 54.9815 749.015 54.9103C750.103 54.8392 751.192 54.8629 752.233 54.9103C753.274 54.9578 754.244 55.0527 755.143 55.1951C756.042 55.3374 756.728 55.5985 757.248 55.9781C757.437 56.1679 757.627 56.4527 757.769 56.8086C757.911 57.1882 758.1 57.6154 758.289 58.0899V58.8018C758.384 59.2763 758.407 59.7746 758.36 60.2729C758.313 60.7949 758.289 61.2932 758.289 61.744V66.1812C758.289 67.8184 757.887 68.9811 757.082 69.6218C756.396 70.0964 755.521 70.3336 754.48 70.3336C753.439 70.3336 752.304 70.3336 751.121 70.3336C749.725 70.3336 748.258 70.3336 746.697 70.3336C745.135 70.3336 743.976 70.0489 743.195 69.4794C742.793 69.1947 742.485 68.6964 742.296 68.0083C742.083 67.2964 741.965 66.5134 741.918 65.6117C741.87 64.7338 741.87 63.8321 741.918 62.9305C741.965 62.0525 741.989 61.2695 741.989 60.6051V58.778C741.989 58.2086 742.083 57.6865 742.296 57.2357C742.698 56.2154 743.384 55.551 744.402 55.2663C744.686 55.2663 745.253 55.1951 746.058 55.0053L746.034 54.9815Z" fill="#2D373F"/>
</g>
<defs>
<clipPath id="clip0_18_82">
<rect width="759" height="118" fill="white"/>
</clipPath>
</defs>
</svg>
