<svg width="96" height="105" viewBox="0 0 96 105" fill="none" xmlns="http://www.w3.org/2000/svg">
<path d="M48.2116 0.0538916C68.1318 -0.824049 87.91 9.04685 93.0911 28.0531C93.7535 30.5208 92.7126 31.992 89.9919 32.2767C87.5315 32.5377 85.0237 32.5614 82.5633 32.2767C81.4277 32.1343 80.5997 31.7072 80.1028 30.9479C79.4167 30.0225 78.8489 28.931 78.4704 27.7209C73.3839 12.2739 50.6958 7.50453 36.43 13.3654C24.9558 18.0873 18.2605 27.2463 15.3978 38.5172C14.5698 41.7679 14.0493 45.0662 13.8364 48.4118C13.7418 50.0728 13.6945 51.7575 13.7654 53.4185C14.0966 63.5741 16.4388 74.1094 23.1104 82.3431C36.8558 99.2849 68.4157 97.624 77.8553 77.5025C79.464 74.0619 79.535 69.5061 81.5933 66.3978C82.0901 65.6385 82.8945 65.2351 83.9827 65.1402C86.798 64.9029 94.0611 63.7877 94.4633 67.7265C94.558 68.7231 94.4633 69.6722 94.1558 70.5976C91.5061 80.2075 87.7207 89.5564 79.2748 95.963C61.8151 109.227 31.1542 107.969 15.114 93.1156C14.002 92.0953 12.9611 91.0038 12.0147 89.8411C8.11116 85.1667 5.03557 79.638 2.74073 73.2552C2.33854 72.14 2.00732 70.9536 1.77074 69.7434C-2.20383 49.7643 -0.382151 26.7955 16.5571 12.2739C25.0267 5.01307 36.1223 0.765736 47.5492 0.125076C47.7858 0.125076 47.9987 0.101348 48.2353 0.101348L48.2116 0.0538916Z" fill="#F79837"/>
<path d="M83.5095 41.9815C84.4085 41.9815 85.4021 41.9815 86.4904 41.9103C87.5787 41.8392 88.667 41.8629 89.7079 41.9103C90.7489 41.9578 91.7189 42.0527 92.6179 42.1951C93.5169 42.3374 94.203 42.5985 94.7235 42.9781C94.9127 43.1679 95.102 43.4527 95.2439 43.8086C95.3859 44.1882 95.5752 44.6154 95.7644 45.0899V45.8018C95.8591 46.2763 95.8827 46.7746 95.8354 47.2729C95.7881 47.7949 95.7644 48.2932 95.7644 48.744V53.1812C95.7644 54.8184 95.3622 55.9811 94.5578 56.6218C93.8718 57.0964 92.9965 57.3336 91.9555 57.3336C90.9145 57.3336 89.7789 57.3336 88.596 57.3336C87.2002 57.3336 85.7334 57.3336 84.172 57.3336C82.6105 57.3336 81.4512 57.0489 80.6705 56.4794C80.2683 56.1947 79.9608 55.6964 79.7715 55.0083C79.5586 54.2964 79.4403 53.5134 79.393 52.6117C79.3457 51.7338 79.3457 50.8321 79.393 49.9305C79.4403 49.0525 79.464 48.2695 79.464 47.6051V45.778C79.464 45.2086 79.5586 44.6865 79.7715 44.2357C80.1737 43.2154 80.8598 42.551 81.8771 42.2663C82.161 42.2663 82.7288 42.1951 83.5331 42.0053L83.5095 41.9815Z" fill="#F79837"/>
</svg>
